<svg viewBox="0 0 9413 1761" fill="none" xmlns="http://www.w3.org/2000/svg" class="h-[20px] md:h-[22px] md:pl-2 w-auto text-slate-900" data-fc-idx="0"><path d="M2323.98 738.038V1722.09H3038.14V738.038L2677.48 857.461L2323.98 738.038ZM5020.57 408.429V1722.09H5734.72V1144.08C5734.72 1053.32 5741.89 905.231 5837.42 905.231C5887.58 905.231 5913.86 943.446 5913.86 1017.49V1722.09H6628.01V1144.08C6628.01 1053.32 6635.17 905.231 6730.71 905.231C6780.87 905.231 6807.14 943.446 6807.14 1017.49V1722.09H7521.3V1017.49C7521.3 685.491 7418.59 370.213 7036.44 370.213C6952.84 370.213 6881.19 384.544 6821.47 406.04L6704.44 738.038H6601.73C6553.97 515.91 6422.6 370.213 6143.15 370.213C6071.49 370.213 6009.39 382.155 5954.46 398.875L5835.04 738.038H5734.72V408.429H5020.57ZM3226.82 1292.16V1722.09H4827.1V1151.24L4239.54 1256.34L4222.82 1172.74L4827.1 838.353V408.429H3226.82V979.273L3814.39 874.181L3828.72 950.612L3226.82 1292.16ZM2679.86 704.599L2961.7 601.895L3066.8 351.105L2961.7 102.704L2679.86 0L2398.03 102.704L2292.93 351.105L2398.03 601.895L2679.86 704.599ZM8524.45 1760.3C9076.19 1760.3 9412.97 1473.69 9412.97 1062.87C9412.97 659.218 9076.19 370.213 8524.45 370.213C7951.22 370.213 7640.72 659.218 7640.72 1062.87C7640.72 1473.69 7951.22 1760.3 8524.45 1760.3ZM8524.45 1239.62L8376.37 1191.85L8323.82 1065.26L8376.37 941.058L8524.45 893.288L8667.76 941.058L8727.47 1065.26L8667.76 1191.85L8524.45 1239.62ZM2163.96 819.246H1105.86V919.561L1342.32 1058.09L1101.09 1153.63L888.511 1074.81L804.915 886.123L888.511 697.434L1101.09 618.614L1316.05 714.153L2125.74 551.737C2011.09 231.682 1655.21 11.9424 1096.31 11.9424C372.602 11.9424 0 403.652 0 886.123C0 1370.98 370.213 1760.3 950.612 1760.3C1046.15 1760.3 1129.75 1745.97 1201.4 1724.48L1318.44 1368.59H1402.03V1722.09H2163.96V819.246Z" fill="currentColor" style="fill: oklch(0.208 0.042 265.755) !important;"/></svg>